<?xml version="1.0" encoding="UTF-8"?>
<svg width="192px" height="51px" viewBox="0 0 192 51" version="1.1" xmlns="http://www.w3.org/2000/svg" xmlns:xlink="http://www.w3.org/1999/xlink">
    <!-- Generator: Sketch 48.2 (47327) - http://www.bohemiancoding.com/sketch -->
    <title>React + Three.js</title>
    <desc>Created with Sketch.</desc>
    <defs></defs>
    <g id="Page-1" stroke="none" stroke-width="1" fill="none" fill-rule="evenodd">
        <path d="M12.6035774,41.1345239 C12.605327,41.1361145 12.6062813,41.1370688 12.6062813,41.1370688 C12.6061478,41.1368018 12.6060138,41.1365354 12.6058793,41.1362694 L12.6035774,41.1345239 Z M12.6058793,41.1362694 C12.5713919,41.0680899 12.5030799,41.0338674 12.4688575,40.9996449 C12.5375694,41.1370688 12.1252978,40.8278651 12.0909418,40.7935091 C11.85045,40.5873733 11.6786702,40.3125256 11.4725344,40.0376778 C11.1633307,39.5910503 10.819771,39.1787787 10.4418554,38.7321511 C10.2700755,38.5947272 8.8271249,36.5677251 9.10197264,36.3615893 C9.17068457,36.3272333 9.23939651,36.4990132 9.27375247,36.4990132 C9.1363286,36.2585214 8.99890473,36.0523856 8.89583683,35.8118938 C8.89583683,35.8462498 8.9301928,35.9149617 8.89583683,35.9836737 C8.8271249,36.0180296 7.28110636,32.9947045 7.14368249,32.7198568 C6.83447878,32.1014493 6.3878512,31.5173979 6.21607136,30.8302785 C6.07864749,30.383651 6.18171539,30.2118711 5.97557959,29.8339555 C4.94490056,32.2388732 3.9485775,34.8499267 3.60501783,37.4266243 C3.57066186,37.3922683 3.53630589,37.3579124 3.53630589,37.2892004 C2.78047461,38.0793877 1.13138816,38.1480996 0.650404617,37.0830646 C0.135065104,35.9493177 0.89089639,34.1284514 1.13138816,32.9947045 C1.47494784,31.4830419 1.71543961,30.0057353 2.23077912,28.5627847 C2.43691493,28.0130892 2.71176267,27.4977497 2.95225444,26.9824102 C3.02096638,26.8449863 3.22710218,25.8143073 3.29581412,25.7799513 C3.33017009,25.8143073 3.33017009,25.8830192 3.33017009,25.9173752 C3.36452605,25.8143073 3.39888202,25.7455953 3.39888202,25.6425274 C3.26145815,25.9517311 3.43323799,25.092832 3.43323799,25.058476 C3.57066186,24.6462044 3.7424417,24.2339328 3.91422154,23.8216612 C4.18906928,23.1688978 4.36084911,22.5848463 4.49827298,21.9320829 C4.56698492,21.6572352 5.59766395,18.8056899 5.90686765,18.8744018 C5.97557959,18.8744018 5.83815572,19.1148936 5.87251169,19.1492496 C6.00993556,18.8400459 6.14735943,18.5308422 6.25042733,18.2216384 C6.21607136,18.2903504 6.18171539,18.3590623 6.11300346,18.3934183 C6.04429152,18.3590623 7.93386974,14.2707022 8.10564958,13.8584306 C8.41485329,13.1025993 8.72405699,12.2780561 9.17068457,11.5909367 C9.37682038,11.316089 9.61731215,11.2130211 9.75473602,11.0068853 C9.85780392,10.8694614 9.89215989,10.5946136 9.99522779,10.4228338 C10.1670076,10.0792741 10.5449233,9.25473091 10.9915509,9.08295107 C11.7130262,8.77374736 12.2283657,9.73571446 12.4345015,10.2854099 C12.6406373,10.8351054 12.5375694,11.0412412 12.3314336,11.4191569 L12.4345015,11.3504449 C12.5375694,11.3848009 11.85045,12.7246836 11.7130262,12.6903277 C11.6786702,12.6903277 11.7817381,12.4154799 11.884806,12.2093441 C8.86148086,17.1909594 6.93754668,22.0351508 5.56330798,26.6732065 C6.25042733,24.4057126 7.21239442,22.2069307 8.34614135,20.1112167 L8.00258167,20.9014039 L8.8271249,19.1492496 C8.24307345,20.6609121 7.659022,22.1725747 7.24675039,23.7529492 C8.03693764,22.1725747 8.86148086,20.6609121 9.85780392,19.1836055 C10.7510591,17.8780788 11.8160941,16.7443318 12.7780612,15.507517 C12.7780612,15.507517 13.0529089,14.8891096 13.2246887,14.8203977 C13.1903328,14.8547536 12.8811291,15.3700931 12.915485,15.3357372 L13.3964686,14.7173298 C13.3621126,14.7173298 13.3621126,14.7173298 13.3277566,14.6829738 C13.3964686,14.2019902 14.1866558,13.5148709 14.4958595,13.1713112 C14.9424871,12.6559717 15.4234707,12.1749882 15.9044542,11.7283606 C16.6602855,10.9725293 17.7253205,9.66700252 18.7903555,9.35779881 C20.5768658,8.8424593 22.0885284,10.8007495 22.2259522,12.4498359 C22.1915963,12.381124 22.2259522,12.6216157 22.2259522,12.6216157 C22.2259522,12.7933956 22.2603082,13.2400231 22.1915963,13.2743791 C22.2247558,13.2412196 22.161901,13.048036 22.1265928,12.9110602 C22.1572271,13.514977 22.0885184,14.0646227 21.9854605,14.6486178 C22.0541724,14.476838 22.1572403,14.2363462 22.1572403,14.2363462 C22.2946642,14.9234656 21.5731889,16.4351281 21.3670531,16.9504676 C20.8860695,18.2903504 20.1989502,19.5271652 19.3744069,20.6609121 C18.6529316,21.6228792 17.8971003,22.5848463 17.0382011,23.4093895 C16.2823699,24.1995768 15.1829789,25.4707476 14.0835879,25.7455953 C17.4161168,22.8596941 20.0958823,19.3553854 20.8860695,14.8891096 C20.3020181,18.1185705 18.24066,20.9357599 16.0418781,23.2376097 C14.9424871,24.4400686 13.98052,25.8143073 12.7093492,26.6732065 C11.3007546,27.5664616 9.23939651,28.9063444 7.52159813,28.8032765 C8.07129361,29.8339555 8.62098909,30.8302785 9.23939651,31.7922456 L8.14000555,29.8339555 C9.10197264,31.41433 11.3007546,34.540723 11.6099583,34.8842827 L13.98052,37.5984041 C14.5302155,38.2168116 15.1486229,39.0757108 15.7326744,39.5566943 C15.6639624,39.4879824 15.6296065,39.3849145 15.5952505,39.3162025 C15.5952505,39.2818466 16.7977094,40.0033219 16.9351332,40.0720338 C17.2786929,40.2094577 17.6222526,40.3468816 17.9658123,40.3125256 C18.8590674,40.3125256 19.9584584,39.6254062 20.5425098,39.0069988 C20.8517135,38.6634391 21.1952732,38.2168116 21.2639852,39.1444227 C21.2983411,39.5223383 21.1609173,39.7971861 20.8860695,40.1407457 C19.7866785,41.5493404 18.275016,43.2327828 16.3167258,43.4045627 C15.5952505,43.4732746 14.9081312,43.2327828 14.2897237,42.8548672 C14.1522999,42.7517993 12.5032134,41.2057807 12.5375694,41.1027128 C12.5661994,41.1027128 12.5948293,41.1265711 12.6035774,41.1345239 L12.6058793,41.1362694 Z M22.1265928,12.9110602 C22.1253188,12.9061181 22.1240808,12.9012491 22.1228843,12.8964635 C22.1228877,12.8965231 22.122891,12.8965828 22.1228943,12.8966425 L22.1265928,12.9110602 Z M9.61795208,22.3778414 C9.65471631,22.3281976 9.70472617,22.3099986 9.75473602,22.3099986 C9.75473602,22.3099986 8.65534506,24.4057126 8.51792119,24.6118484 C8.03693764,25.5051036 7.59031006,26.3983587 7.14368249,27.2916139 C7.28110636,27.2229019 8.65534506,26.6044945 8.72405699,26.6732065 C8.72405699,26.7075624 8.03693764,27.0511221 7.7620899,27.2229019 C11.2320426,25.7799513 14.1179439,23.0658299 16.2136579,19.9394368 C15.5265386,20.9357599 14.7363513,21.863371 13.9118081,22.7566262 C13.3964686,23.2719657 12.8467731,23.8216612 12.2970776,24.3026447 C12.0222299,24.5087805 11.4038225,24.8523402 11.1289747,25.1271879 C11.4381784,24.7492723 12.0909418,24.4057126 12.4001455,24.0965089 C12.8124171,23.7529492 13.2246887,23.3750336 13.6026044,22.9971179 C14.4271476,22.1038628 15.2173349,21.1762517 15.9044542,20.1799286 C17.2443369,18.2903504 18.5842197,15.9541446 18.7559995,13.5835828 C18.7216436,13.6522948 18.7216436,13.6866507 18.7559995,13.5492269 L18.7559995,13.5148709 C18.9277794,10.216698 15.5265386,14.6486178 14.9424871,15.3357372 C13.1064096,17.5458305 11.1357299,19.9578271 9.62990741,22.3719073 L9.61795208,22.3778414 Z M10.6823471,14.9234656 C10.5105673,15.3357372 10.3044315,15.7136528 10.0982957,16.0915685 L10.9915509,14.1332783 C11.0602628,13.9958544 10.7510591,14.7860417 10.6823471,14.9234656 Z M7.83080184,29.2241371 C7.90810276,29.3787389 8.01975966,29.5934637 8.14000555,29.8339555 C8.00258167,29.5934637 7.88233579,29.3873279 7.80503486,29.2370205 L7.83080184,29.2241371 Z M7.83080184,29.2241371 C7.75350091,29.0695352 7.71055595,28.9750563 7.72773393,28.9750563 C7.69337797,28.9922343 7.72773393,29.0867132 7.80503486,29.2370205 L7.83080184,29.2241371 Z M10.1670076,33.1664843 L10.2013636,33.2351963 L10.2013636,33.2008403 C10.1670076,33.1321284 10.1670076,33.1664843 10.1670076,33.1664843 Z M10.1326517,33.1450119 C10.1240627,33.1321284 10.1154737,33.1149504 10.0982957,33.0977724 C10.1154737,33.1149504 10.1240627,33.1321284 10.1326517,33.1450119 Z M10.1326517,33.1450119 C10.1412407,33.1578953 10.1498296,33.1664843 10.1670076,33.1664843 C10.1498296,33.1664843 10.1412407,33.1578953 10.1326517,33.1450119 Z M9.29093046,22.9069335 C9.29951945,22.89405 9.30810844,22.876872 9.30810844,22.8596941 C9.30810844,22.876872 9.29951945,22.885461 9.29093046,22.89405 L9.29093046,22.9069335 Z M32.1145561,26.7762744 C32.25198,27.0511221 32.1489121,27.2229019 31.9771323,27.4290377 L30.9120973,28.8376324 L29.056875,31.2425501 C28.5758915,31.8609576 27.99184,32.445009 27.5108565,33.0634164 C26.995517,33.7505358 26.5488894,34.4720111 25.9648379,35.1247745 C25.3464305,35.7775379 24.6249552,36.4646572 23.800412,36.9112848 C23.2163605,37.2204885 22.6666651,37.2548445 22.0482576,37.0830646 C21.1550025,36.8425729 20.3648152,36.2928774 19.7807638,35.605758 C19.6089839,35.3996222 19.4372041,35.2278424 19.4028481,34.9529946 C19.3684922,34.7468588 19.3341362,34.5063671 19.3341362,34.2658753 C19.2997802,33.8536037 19.4372041,33.5444 19.505916,33.1321284 C19.574628,32.6855008 19.7807638,32.2732292 19.8494757,31.8266016 C19.9181877,31.3456181 20.0556115,30.8989905 20.1243235,30.4523629 C20.1586794,30.0400913 20.0899675,29.5934637 20.1930354,29.1811921 C20.2617473,28.9063444 20.4678831,28.6314966 20.570951,28.3222929 C20.4678831,28.5284287 20.2961033,28.7345645 20.2617473,28.9063444 C20.1586794,29.1811921 20.0899675,29.4560398 19.9868996,29.6965316 C19.8838317,29.9713793 19.8494757,30.2118711 19.7464078,30.4867189 C19.6089839,30.7959226 19.4715601,31.0707703 19.4372041,31.41433 C19.4028481,31.7235337 19.4372041,32.0327374 19.4028481,32.3419411 C19.3341362,32.6511448 19.2654243,32.8916366 19.2654243,33.2008403 C19.2654243,33.3039082 19.3341362,33.510044 19.3341362,33.5787559 C19.3341362,33.7161798 19.2654243,33.8879597 19.2654243,34.0597395 C19.2654243,34.3689432 19.3341362,34.6781469 19.3684922,35.0217066 C18.8187967,34.0597395 18.9218646,33.0977724 19.0936444,32.0670934 C19.2654243,31.0364143 19.4028481,30.0400913 19.6433399,29.0437682 C20.0899675,27.0167661 21.0175786,25.02412 22.3231054,23.4093895 C23.3881404,22.0007949 24.796735,20.9357599 26.6519573,21.2793196 C27.3390766,21.4167434 28.0949079,21.7259471 28.5415355,22.3099986 C29.0225191,22.962762 28.9881631,23.7873052 28.7476713,24.5431365 C28.3010437,25.8830192 27.1672968,26.9480542 26.1022618,27.8413094 C25.6556342,28.219225 25.1746507,28.5971406 24.6593112,28.9063444 C24.3157515,29.1124802 23.9378359,29.249904 23.5599202,29.3873279 L22.9758688,29.5934637 C22.735377,29.6621756 22.701021,29.6278197 22.5979531,29.8339555 C22.4261733,30.1775152 22.5292412,30.5210748 22.4605293,30.8646345 C22.3918173,31.3112621 22.2887494,31.7235337 22.1856815,32.1701613 C22.0139017,32.9947045 21.7390539,34.0597395 21.9451897,34.9186387 C22.3231054,36.670793 25.2090067,33.9566716 25.7243462,33.475688 C26.0679058,33.1664843 26.3771096,32.8229247 26.6863133,32.5137209 C26.8580931,32.3075851 27.0642289,32.1358053 27.2016528,31.9296695 C27.2016528,31.9296695 27.2703647,31.7578897 27.2703647,31.6891777 C27.6826363,31.0364143 28.2323318,30.4180069 28.7476713,29.7995995 C29.3660787,29.0781242 29.9157742,28.3222929 30.4998257,27.5321057 C30.8090294,27.0854781 31.5305047,25.8143073 32.0802002,26.7419184 L32.0802002,26.7762744 C32.1145561,26.8106303 32.1145561,26.8106303 32.1145561,26.7762744 Z M23.5942762,27.15419 C23.4224963,27.4977497 23.3194284,27.8756653 23.1476486,28.253581 C24.2470396,27.6695295 25.2433626,26.8793423 26.0335499,25.9517311 L26.6176013,25.1958999 C26.7206692,25.02412 26.8924491,24.9210521 26.961161,24.7149163 C26.995517,24.5431365 26.926805,24.4057126 26.961161,24.1995768 L27.0985849,23.4781015 C27.1329408,23.1345418 26.995517,22.2412866 26.4801775,22.3443546 C26.2396857,22.4130665 25.9991939,22.7222702 25.86177,22.89405 L25.2433626,23.7185933 C24.5218873,24.7836282 24.1439717,25.9517311 23.6286321,27.0511221 C23.6286321,27.0511221 23.6286321,27.0854781 23.5942762,27.15419 Z M47.0878432,26.9824102 C47.1565552,27.7725974 46.4007239,28.5627847 46.1258761,29.2155481 C45.6792486,30.2462271 45.163909,31.1738382 44.6142136,32.1014493 C43.9614502,33.1321284 43.3086868,34.1284514 42.5528555,35.0217066 C41.9344481,35.8118938 41.0755489,36.8082169 40.0448699,36.9799967 C38.876767,37.1861325 37.9491559,36.2241654 37.5712402,35.1934864 C36.746697,33.1664843 37.3307484,31.0364143 37.9491559,29.0781242 C37.9491559,29.0781242 37.9491559,28.7689205 37.9835118,28.5284287 C37.6399521,29.0437682 37.1589686,29.6621756 36.8497649,30.1431592 C36.4374933,30.7959226 36.1282896,31.448686 35.681662,32.0670934 C35.4755262,32.3762971 32.6583368,35.7775379 32.2804212,35.1934864 C32.2804212,35.1934864 32.6926928,35.0217066 32.6583368,34.9529946 C32.2460652,35.2278424 31.6963698,35.2965543 31.2153862,35.1591305 C31.3184541,35.2278424 31.387166,35.2621984 31.3528101,35.2621984 C30.5626228,35.3652663 29.9442154,34.1284514 29.7724356,33.5787559 C29.4975878,32.6167889 29.5662998,31.5517539 29.7380796,30.5897868 C30.1159952,28.5971406 30.9405385,26.4327147 32.1086414,24.7149163 C32.4178451,24.3026447 32.7270488,23.8216612 33.1736764,23.5124574 C33.4485241,23.2719657 33.6890159,23.2376097 33.9982196,23.0314739 C34.5135591,22.5848463 34.9601867,22.2069307 35.716018,22.2069307 C37.3994604,22.2069307 38.0865797,24.1308649 38.4301394,25.4363916 C39.2546826,24.3713566 40.7319892,22.962762 42.00316,24.5087805 C42.6902794,25.3333237 42.2436518,25.9517311 41.8657362,26.7075624 C41.2129728,27.9100213 40.6976333,29.3873279 40.4227855,30.6241427 C40.4571415,30.5210748 40.5602094,30.0057353 40.6976333,29.9713793 C40.972481,29.9026674 38.4988513,37.6671161 42.037516,33.3039082 C43.102551,31.9640255 44.0301621,30.5554308 44.9577732,29.1468361 C45.3700448,28.4940727 45.7823165,27.8069534 46.228944,27.15419 C46.4350798,26.8793423 47.0534873,26.2265789 47.0878432,26.9824102 Z M37.2276805,27.2229019 C37.3994604,26.9480542 37.3994604,26.9480542 37.3994604,26.6732065 C37.3994604,26.3983587 36.712341,24.5087805 36.8841209,24.3713566 C36.9184768,24.3370007 37.2276805,25.3333237 37.2620365,25.4020357 C37.1589686,24.9897641 37.0215447,23.7185933 36.4031373,23.7185933 C35.2693904,23.7185933 34.4104912,25.8143073 34.0325756,26.6044945 C33.3454562,28.1505131 32.7270488,29.7995995 32.452201,31.4830419 C32.5552689,30.9677024 34.5479151,24.7492723 35.1663225,24.7836282 C34.6853389,24.8866962 32.8644727,30.1775152 32.7614048,30.6584987 C32.6926928,30.9333464 32.1429973,32.7198568 32.6583368,32.8916366 C33.0018965,32.9947045 33.8264397,31.9296695 33.9982196,31.6891777 C34.650983,30.8989905 35.2693904,30.0744473 35.8534418,29.2155481 L36.746697,27.9443773 C36.8841209,27.7038855 37.0559007,27.4633937 37.2276805,27.2229019 Z M38.0178678,28.9063444 L38.3270715,28.0818011 L38.1552917,28.3222929 C38.1209357,28.4253608 38.0178678,28.9063444 38.0178678,28.9063444 Z M37.5025283,26.7762744 C37.6055962,26.6732065 37.6055962,26.5701386 37.5025283,26.4327147 L37.5025283,26.7762744 Z M51.8253214,21.7236841 C51.8822708,21.7485041 51.9233756,21.7788532 51.8917639,21.7946591 C51.8807481,21.8056749 51.859136,21.7990303 51.8325902,21.7871829 L51.8253214,21.7236841 Z M51.8325902,21.7871829 C51.7763455,21.762081 51.6979524,21.7136228 51.6512721,21.7603031 C50.8610849,22.5161344 50.4144573,23.5124574 49.9678297,24.5087805 C49.0402186,26.6732065 48.2843873,28.9407003 47.9064717,31.2425501 C47.7346918,32.3419411 47.562912,33.6131119 47.8034038,34.6781469 C47.8721157,34.9186387 47.9408276,35.2621984 48.1813194,35.3996222 C48.7653709,35.8118938 49.692982,35.0560625 50.1739655,34.7125029 C50.8954409,34.1628074 51.6856281,33.6131119 52.2696796,32.9947045 C52.1666117,33.0634164 52.0635438,33.1321284 51.9604758,33.1664843 C51.8917639,33.1664843 52.5445273,32.3419411 52.6132392,32.2732292 C52.9567989,31.9296695 53.2660026,31.5517539 53.5752063,31.1738382 C54.1249018,30.4867189 54.7089533,29.7995995 55.2586487,29.0781242 C55.5334965,28.7345645 57.3200068,25.8830192 58.0071261,26.5701386 C58.5224657,27.15419 57.2856508,28.4597168 56.9764471,28.9063444 C56.3923957,29.6621756 55.8083442,30.383651 55.2930047,31.1738382 C54.0218339,33.0290605 52.3383915,34.8155708 50.6205931,36.2585214 C49.6242701,37.0830646 48.3187433,37.8732519 46.9445046,37.7014721 C46.532233,37.6327601 46.1199614,37.4953362 45.8451136,37.1861325 C45.6389778,36.9799967 44.7113667,35.640114 44.8831465,35.4339782 C44.8831465,35.4339782 45.0205704,35.7775379 45.0549264,35.8118938 L44.8831465,35.2278424 C44.8831465,35.4339782 44.6082988,34.7125029 44.6082988,34.575079 C44.5395869,34.1284514 44.5395869,33.6474679 44.5395869,33.2008403 C44.5739428,32.3419411 44.7113667,31.5173979 44.7457227,30.6928547 C44.7800786,29.9370234 44.9518585,29.2155481 45.1923502,28.4940727 C45.2267062,28.3222929 45.8451136,26.4327147 46.0512494,26.4670707 C46.0856054,26.4670707 45.9825375,26.7762744 46.0168935,26.7762744 C46.1543173,26.4327147 46.2573852,26.054799 46.4291651,25.6768834 L46.2917412,25.8486632 C46.2573852,25.8143073 47.4942001,23.3063216 47.6316239,23.0658299 C48.1813194,22.1725747 48.8340828,21.3823875 49.692982,20.76398 C50.2770334,20.3173525 50.9641528,20.0081488 51.7199841,20.1112167 C52.6475952,20.2486405 52.9567989,20.6952681 53.3003586,21.4167434 C53.6095623,22.1038628 53.8500541,22.6192023 53.7813421,23.5124574 C53.7469862,24.027797 53.6782742,24.7149163 53.4377825,25.2302558 C53.1972907,25.7112394 52.1322557,26.3640028 51.5825602,25.9860871 C51.1359326,25.6768834 51.4794923,25.4707476 51.6512721,25.1958999 L51.4794923,25.3333237 C51.4794923,25.3333237 51.9604758,23.5811694 52.0291878,23.5811694 C52.0635438,23.5811694 51.9261199,24.3370007 51.9261199,24.3713566 C52.0635438,23.9247291 52.5101713,20.8670479 51.3420684,21.7946591 C50.8954409,22.1382187 50.6205931,22.8596941 50.3801013,23.3063216 C49.9678297,24.1652208 49.6242701,25.02412 49.3150663,25.8830192 C49.727338,24.7836282 50.2083215,23.6842373 50.8267289,22.6879142 C51.0328647,22.3099986 51.2733565,21.897727 51.6512721,21.6915912 C51.6698223,21.673041 51.758484,21.6945547 51.8253214,21.7236841 L51.8325902,21.7871829 Z M46.9101486,26.3983587 C46.9101486,26.3640028 46.9445046,26.2952908 46.9445046,26.2265789 C46.6696568,26.8793423 46.2230293,27.4633937 46.1543173,28.0474452 C46.1886733,27.8756653 46.497877,27.6695295 46.6009449,27.4290377 C46.7383688,27.119834 46.8414367,26.7419184 46.9101486,26.3983587 Z M45.6389778,30.4180069 C45.7076898,30.349295 45.6046219,30.2118711 45.6046219,30.2118711 C45.467198,30.6241427 45.467198,31.0707703 45.5015539,31.4830419 C45.5015539,31.1051263 45.5015539,30.6584987 45.6389778,30.4180069 Z M48.1126075,29.5934637 L48.593591,27.9443773 C48.4218112,28.4940727 48.2500314,29.0437682 48.1126075,29.5934637 Z M45.7076898,29.7652435 L45.7764017,29.6621756 C45.6046219,29.7308876 45.6046219,29.9026674 45.6046219,30.0744473 C45.6046219,30.0057353 45.6733338,29.8683114 45.7076898,29.7652435 Z M48.6966813,27.5829396 C48.6966589,27.5888989 48.6966589,27.5948583 48.6966589,27.6008176 C48.6966589,27.5893367 48.6966589,27.5816925 48.697941,27.5753206 L48.6966813,27.5829396 Z M69.5104605,17.3970952 L69.5104605,17.4314512 C69.5448165,17.9124347 68.960765,18.2903504 68.5484934,18.3934183 C68.1018658,18.5308422 67.5865263,18.2559944 67.1742547,18.3247063 C66.9337629,18.3934183 67.0024749,18.4964862 66.7963391,18.5651981 C66.4871354,18.668266 66.1092197,18.6339101 65.800016,18.6339101 C65.3533884,18.6339101 64.3914213,18.3934183 64.0135057,18.6339101 C63.9447938,18.668266 63.8760818,18.736978 63.8073699,18.8400459 L63.9104378,18.6339101 C63.704302,18.668266 63.3607423,19.5958771 63.1202505,20.2142846 L63.4981662,19.4584533 L63.0171826,20.76398 C62.673623,21.4854554 62.3644193,22.2412866 62.0552155,22.962762 C61.4368081,24.4057126 60.8871126,25.8143073 60.3374172,27.2916139 C59.409806,29.9713793 58.4821949,32.7885687 57.8637875,35.5714021 C57.7607196,36.0523856 57.1766682,38.0450317 57.8294315,38.3198795 C57.9324994,38.3885914 58.6539748,37.9763198 58.6196188,38.0106758 C58.7913986,37.8388959 58.9975344,37.6671161 59.1693143,37.4609803 C59.0318904,37.5640482 58.6539748,37.8732519 58.6539748,37.80454 C58.6196188,37.5984041 59.478518,36.9112848 59.6159418,36.739505 C59.9595015,36.3959453 60.2687052,36.0180296 60.5779089,35.67447 L62.5705551,33.2351963 C63.8073699,31.6891777 64.9754728,30.1088032 66.2122876,28.5627847 C66.4871354,28.219225 67.1055428,27.0167661 67.5521704,26.9136982 C68.1018658,26.8106303 68.2049337,27.3603258 68.0331539,27.8069534 C67.7239502,28.7345645 66.7963391,29.4903958 66.3153555,30.314939 C65.4564563,31.7578897 64.4257773,33.0977724 63.4294542,34.4720111 C62.3300633,35.9493177 61.2306723,37.4266243 60.0282135,38.835219 C59.478518,39.5223383 58.7570427,40.4843054 57.8981435,40.896577 C57.2453801,41.2057807 56.3864809,40.8278651 55.8367854,40.4155935 C55.218378,40.0033219 54.8748183,39.3849145 54.7373945,38.6977951 C54.7030385,38.4916593 54.4969027,37.3922683 54.7030385,37.1517766 L54.7030385,37.6671161 L54.7717504,36.9799967 C54.7030385,37.1174206 54.7030385,36.670793 54.7030385,36.6020811 C54.7030385,36.3272333 54.7717504,36.0180296 54.8404624,35.7431819 C54.9091743,35.1934864 55.0465982,34.6781469 55.184022,34.1284514 C55.4245138,33.0634164 55.6993615,31.9983814 55.9054974,30.8989905 C56.0772772,29.7995995 56.4551928,28.7689205 56.7987525,27.7382415 C56.8674644,27.5664616 57.5545838,25.4707476 57.7263636,25.4707476 C57.7607196,25.4707476 57.6576517,25.8830192 57.6576517,25.9173752 C57.7950756,25.4020357 58.0012114,24.8866962 58.1729912,24.3713566 C58.1042793,24.5431365 58.0012114,24.7149163 58.0012114,24.6462044 C58.0012114,24.2339328 58.447839,23.5124574 58.5852628,23.1345418 L58.9975344,21.9320829 C59.3754501,20.832692 59.7533657,19.733301 60.2343493,18.702622 C59.2723822,18.7713339 58.344771,18.702622 57.4515159,18.8744018 C56.1459891,19.1148936 54.4969027,18.9774697 53.1913759,18.8056899 C53.0195961,18.7713339 52.1950529,18.736978 52.4011887,18.3590623 C52.4699006,18.2559944 53.2257319,18.0842146 53.3631558,18.0498586 C54.0159191,17.8093668 54.7030385,17.8093668 55.3901578,17.7750109 C56.7300406,17.637587 58.0355673,17.7062989 59.3754501,17.5345191 C59.7190097,17.5001631 60.3030612,17.603231 60.6122649,17.4658072 C60.9214686,17.3627393 60.9214686,17.1222475 61.0588925,16.8130438 C61.2993843,16.1946364 61.574232,15.5762289 61.8490797,14.9921775 C62.1582834,14.3394141 62.4331312,13.6522948 62.8454028,13.0682433 C63.1202505,12.6903277 63.3950983,12.5872598 63.6012341,12.1749882 C64.0135057,11.247377 64.4944892,10.3197659 65.1472526,9.52957865 C65.834372,8.63632349 67.0368308,8.49889962 68.1018658,8.70503543 C68.6172053,8.80810333 69.3386807,9.11730704 69.0981889,9.80442639 C68.995121,10.0792741 68.6515613,10.251054 68.4454255,10.4571898 C68.4454255,10.4915457 68.7546292,10.1479861 68.7546292,10.2854099 C68.7202733,10.5259017 67.4491025,12.2780561 67.3460345,12.2437001 C67.3116786,12.2437001 67.8270181,11.3848009 67.8613741,11.316089 C66.5558473,13.2400231 65.4564563,15.3357372 64.4257773,17.4314512 C64.5288452,17.4314512 64.6319131,17.2940273 64.769337,17.0535355 C64.6662691,17.2596714 64.5975571,17.3970952 64.5975571,17.4314512 C65.9374399,17.3627393 67.3116786,17.3627393 68.6859173,17.2940273 C68.960765,17.2940273 69.4761045,16.9161117 69.5104605,17.3970952 Z M62.9828267,19.3897413 C64.3570654,16.4694841 65.5938802,13.446159 67.4491025,10.8007495 C64.700625,14.6829738 62.9828267,19.2866734 61.0588925,23.5811694 C59.9251456,26.089155 58.9631785,28.7002085 58.2073472,31.3456181 C57.8637875,32.5480769 57.5889398,33.7505358 57.348448,34.9873506 L57.5202278,34.3345872 C57.8981435,32.7198568 58.447839,31.1051263 59.0318904,29.5591077 C60.2687052,26.157867 61.4368081,22.6535583 62.9828267,19.3897413 Z M65.2503205,15.9885006 L66.0748637,14.408126 C65.9030839,14.442482 65.5938802,15.1983133 65.2503205,15.9885006 Z M61.7364549,23.3608466 C61.7393013,23.3544628 61.7424745,23.3477523 61.7460118,23.3406776 C61.7431345,23.3470716 61.7402632,23.3534657 61.7373977,23.3598597 L61.7364549,23.3608466 Z M64.8036929,16.9848236 C64.9067609,16.7786878 65.0441847,16.5038401 65.1472526,16.2289923 L64.8036929,16.9848236 Z M57.314092,38.6290832 L57.2110241,38.5603712 C57.2453801,38.5947272 57.2797361,38.6290832 57.314092,38.6290832 Z M89.0471765,27.2229019 C89.1502444,27.9787332 87.501158,27.8413094 87.1575983,27.9443773 C87.0545304,27.9787332 86.8140386,28.184869 86.6422588,28.219225 C86.367411,28.2879369 86.0582073,28.3222929 85.7833596,28.3222929 C85.371088,28.3566489 84.9588164,28.4253608 84.5809007,28.4940727 C83.9968493,28.5284287 83.7563575,28.3910048 83.5158657,28.9750563 L82.8974583,30.314939 C82.4508307,31.1738382 81.9354912,32.0327374 81.3170838,32.7885687 L81.2140159,32.6855008 C81.2483719,32.8572806 81.2483719,32.9603485 81.0422361,33.1664843 C80.6299645,33.6131119 80.4238287,33.1321284 80.4238287,32.5137209 C80.4581846,32.2045172 80.5612525,31.8953135 80.5956085,31.5861098 C80.5956085,31.379974 80.5612525,31.2425501 80.5612525,30.9677024 C80.5612525,30.314939 80.8017443,29.4560398 80.9735241,28.8376324 C79.2900817,28.9407003 76.7133842,29.5591077 76.8164521,26.9136982 C76.850808,25.8830192 77.4692154,26.1922229 78.2937587,26.157867 C79.015234,26.089155 79.7023533,26.089155 80.3894727,26.054799 C80.6643204,26.054799 81.4201517,26.089155 81.6262875,25.9173752 C81.7980674,25.7799513 81.9011353,24.9897641 81.9354912,24.7149163 C82.0385591,24.1995768 82.0729151,23.7873052 82.2790509,23.2719657 C82.6913225,22.1038628 83.4127978,21.4854554 84.7526806,21.829015 C85.4054439,22.0007949 85.5772238,22.1725747 85.4397999,22.7566262 C85.1649522,23.8560171 84.6496127,24.9897641 84.4778328,26.089155 C85.371088,26.1922229 86.2299872,26.2952908 87.0888864,26.5014266 C87.3637341,26.5701386 89.0128205,26.9480542 89.0471765,27.2229019 Z M81.3857957,30.2805831 C81.5575756,29.318616 81.7293554,28.3566489 81.9354912,27.3946818 C82.175983,26.2609349 82.3134069,24.8523402 82.6569665,23.6155254 C82.3477628,24.6462044 82.210339,25.7455953 81.9354912,26.7075624 C81.4201517,28.3910048 80.9048122,30.2118711 81.110948,31.9983814 C81.110948,31.379974 81.3170838,30.5554308 81.3857957,30.2805831 Z M127.067403,10.1136301 C127.136115,10.7320375 125.8993,10.8351054 125.521385,10.9038174 C124.902977,11.0412412 124.078434,10.9725293 123.494382,11.1786651 C123.460026,11.1786651 123.356959,11.3848009 123.253891,11.4191569 C123.116467,11.4878688 122.944687,11.5222248 122.807263,11.5565807 C122.360636,11.6596486 121.914008,11.7283606 121.501736,11.7970725 L119.028107,12.2093441 C118.444055,12.2780561 117.447732,12.1062762 117.138528,12.7246836 C117.069817,12.8621075 117.104172,13.0682433 117.069817,13.2400231 C116.932393,13.6522948 116.657545,14.0302104 116.451409,14.408126 L115.145882,17.0191796 C114.493119,18.2216384 114.046491,19.5271652 113.496796,20.76398 C113.187592,21.4854554 112.775321,22.2069307 112.569185,22.962762 C112.431761,23.5468134 112.328693,24.1308649 112.088201,24.7492723 C110.954454,27.4977497 109.614572,30.2118711 108.583893,33.0290605 C107.828061,35.0217066 106.316399,39.2131346 103.533565,38.9726428 C101.987547,38.835219 100.716376,37.770184 99.9949006,36.3959453 C99.4452051,35.3652663 98.9985776,33.7848917 98.9642216,32.6167889 C98.9642216,32.3762971 98.9298656,31.9640255 99.1016455,31.7922456 C99.548273,31.3112621 100.097969,32.1358053 100.33846,32.479365 C101.163004,33.6474679 101.884479,35.0560625 103.052582,35.9836737 C103.602277,36.3959453 103.739701,36.4303013 104.151973,35.8806058 C105.010872,34.8155708 105.594923,33.3726201 106.007195,32.0670934 C107.07223,28.8719884 108.309045,25.7112394 109.54586,22.5504904 C110.748318,19.3897413 111.882065,16.1946364 113.393728,13.1369552 C112.809677,13.2400231 112.225625,13.3087351 111.641574,13.377447 C111.194946,13.446159 110.885742,13.6179388 110.439115,13.7210067 C109.717639,13.9271425 108.927452,13.9271425 108.171621,14.0302104 C107.312722,14.1332783 106.453823,14.2363462 105.594923,13.9958544 C104.77038,13.7553627 103.430497,12.5872598 104.632956,11.9688523 C105.010872,11.7627165 105.594923,11.6940046 105.938483,11.6596486 C107.587569,11.3848009 109.2023,11.0755972 110.851386,10.9725293 C111.538506,10.9038174 112.122557,10.8351054 112.775321,10.6976815 C113.11888,10.5946136 113.46244,10.5259017 113.806,10.4915457 C114.115203,10.4571898 114.699255,10.5259017 114.974102,10.3541219 C115.42073,10.0792741 115.42073,9.52957865 115.661222,9.25473091 C116.107849,8.7393914 117.138528,8.80810333 117.72258,8.97988317 C118.340987,9.18601898 118.478411,9.46086672 118.890683,9.83878236 C119.096819,10.0449182 118.787615,9.97620623 119.096819,10.0792741 C119.302954,10.1136301 119.577802,10.0449182 119.749582,10.0105622 C120.161854,10.0105622 120.574125,9.97620623 120.986397,9.94185026 C122.635483,9.87313833 124.28457,9.83878236 125.933656,9.94185026 C126.105436,9.97620623 126.311572,10.0105622 126.483352,10.0105622 C126.552064,9.97620623 126.58642,9.77007042 126.758199,9.80442639 C126.929979,9.83878236 127.033047,9.94185026 127.067403,10.1136301 Z M113.977779,18.0842146 C114.802323,16.5038401 115.42073,14.7173298 116.313985,13.1369552 C115.558154,14.2707022 114.424407,15.9197886 113.909067,17.1566034 C113.29066,18.5651981 111.813353,22.5848463 111.126234,24.3370007 C111.778998,22.8596941 113.46244,19.0118257 113.977779,18.0842146 Z M131.391599,27.016501 C131.39119,27.0165703 131.39077,27.0166586 131.39034,27.0167661 C131.390754,27.0166972 131.391165,27.0166278 131.391573,27.0165578 L131.391599,27.016501 Z M131.391599,27.016501 C131.521966,26.9944354 130.599723,28.906882 130.462729,29.0781242 C129.94739,29.9026674 129.397694,30.7272106 128.847999,31.5173979 C127.851676,33.0290605 126.924064,34.7812148 125.618538,36.0523856 C125.137554,36.4990132 124.793994,36.739505 124.141231,36.705149 C123.351044,36.670793 122.835704,36.3272333 122.320365,35.8118938 C122.217297,35.7088259 121.289686,34.9186387 121.392754,34.6781469 L121.598889,34.9873506 C121.495822,34.8155708 121.42711,34.6437909 121.358398,34.4376551 L121.358398,34.575079 C121.25533,34.6781469 120.980482,33.4413321 120.980482,33.3039082 C120.946126,32.7885687 121.049194,32.2732292 121.152262,31.7578897 C121.392754,30.9333464 121.633245,30.1088032 121.839381,29.28426 C122.079873,28.4253608 122.526501,27.6008176 122.938772,26.7762744 C123.007484,26.6388505 123.660248,25.2989678 123.797671,25.2989678 C123.797671,25.3333237 123.660248,25.6425274 123.694603,25.6768834 L124.209943,24.5087805 L124.106875,24.6118484 L125.103198,22.2069307 C123.832027,23.2376097 122.835704,24.6462044 121.839381,25.8830192 C121.358398,26.4670707 120.91177,27.188546 120.327719,27.6695295 C120.121583,27.8413094 120.052871,27.7382415 119.881091,27.9443773 C119.743667,28.1161571 119.640599,28.3566489 119.537531,28.5627847 C118.747344,29.8683114 117.751021,31.0364143 116.926478,32.3075851 L116.30807,33.4069761 C116.239359,33.5787559 116.239359,33.6818238 116.101935,33.8536037 C115.655307,34.3345872 114.86512,34.1628074 114.487204,33.6818238 C114.178,33.3382642 114.143644,32.8572806 114.143644,32.445009 C114.006221,30.9333464 114.34978,29.318616 114.624628,27.8413094 C115.208679,24.6118484 115.998867,21.3823875 117.063902,18.2559944 C117.991513,15.473161 119.400108,12.9651754 120.73999,10.3541219 C120.73999,10.3197659 120.91177,9.59829059 121.08355,9.49522268 C121.049194,9.52957865 120.843058,10.1479861 120.843058,10.1479861 L121.25533,9.35779881 C121.25533,9.35779881 121.220974,9.35779881 121.186618,9.32344285 C121.186618,8.70503543 121.942449,7.77742431 122.286009,7.26208479 C122.766992,6.47189754 123.282332,5.71606625 123.832027,4.96023497 C124.793994,3.62035223 125.721606,2.14304563 127.027132,1.14672257 C127.714252,0.631383053 128.538795,0.150399507 129.43205,0.219111443 C129.878678,0.219111443 130.325305,0.39089128 130.634509,0.700094988 C130.771933,0.837518859 131.39034,1.90255385 131.184204,2.03997772 C131.184204,2.03997772 131.012425,1.52463821 130.978069,1.52463821 C131.184204,2.07433369 131.21856,2.69274111 131.184204,3.24243659 C131.21856,3.17372465 131.21856,3.13936869 131.252916,3.13936869 C131.424696,3.13936869 130.668865,6.3001177 130.600153,6.57496544 C130.256593,7.77742431 129.77561,8.9455272 129.26027,10.0792741 C128.092167,12.4841919 126.683573,15.0608894 124.931418,17.1222475 C124.587859,17.5001631 124.141231,17.7750109 123.832027,18.0842146 C123.488468,18.4621302 123.247976,18.9431138 122.904416,19.3553854 C122.011161,20.3860644 121.049194,21.3480315 120.052871,22.2412866 C119.468819,22.7909821 119.262684,23.1001858 118.987836,23.8560171 C118.747344,24.5774924 118.541208,25.2989678 118.300717,25.9860871 C117.854089,27.3603258 117.441817,28.7345645 117.063902,30.1431592 C117.647953,29.249904 118.266361,28.3910048 118.919124,27.5321057 C118.472496,28.0474452 118.163293,28.4253608 118.163293,28.4253608 C118.094581,28.3910048 122.423433,23.1001858 122.87006,22.6192023 C123.900739,21.5198113 125.790317,19.1492496 127.30198,21.0044718 C128.160879,22.0695068 127.508116,23.3406776 126.992776,24.3713566 C126.099521,26.2609349 125.00013,28.4597168 124.450435,30.383651 C124.484791,30.349295 124.656571,29.8339555 124.759638,29.9026674 C124.965774,30.1088032 124.347367,31.7235337 124.278655,32.0327374 C124.244299,32.2732292 124.003807,33.3726201 124.278655,33.5444 C124.725283,33.8536037 125.51547,32.9259926 125.824673,32.6511448 C127.061488,31.448686 128.195235,30.1088032 129.328982,28.8032765 C129.741254,28.2879369 130.153525,27.7382415 130.634509,27.2572579 C130.737577,27.15419 130.978069,26.8106303 131.149848,26.8106303 C131.218423,26.8106303 131.594962,26.9817219 131.391573,27.0165578 L131.391599,27.016501 Z M128.160879,3.68906417 C128.160879,3.72342013 128.126523,3.72342013 128.126523,3.72342013 C126.889708,5.68171028 125.824673,7.81178027 124.759638,9.87313833 C123.797671,11.7627165 122.732636,13.7210067 121.908093,15.6105849 C122.011161,15.4388051 122.114229,15.2670252 122.182941,15.2326693 C122.182941,15.2326693 121.461466,17.2596714 121.358398,17.4658072 L120.327719,20.1799286 C122.801348,17.5688751 124.931418,14.6486178 126.683573,11.5565807 C125.996453,12.6903277 125.274978,13.8240746 124.519147,14.8547536 L123.144908,16.7786878 L122.526501,17.3970952 L122.801348,17.0878915 C123.144908,16.6756199 123.454112,16.2633483 123.763315,15.8510767 C124.347367,15.0265335 124.931418,14.1676343 125.481114,13.3087351 C126.614861,11.5222248 127.64554,9.70135849 128.470083,7.77742431 C128.882355,6.78110125 129.294626,5.75042222 129.569474,4.68538723 C129.706898,4.17004771 130.153525,2.72709707 129.672542,2.31482546 C129.191558,1.90255385 128.504439,3.13936869 128.229591,3.5516403 C128.263947,3.51728433 128.229591,3.58599626 128.195235,3.6547082 L128.195235,3.62035223 C128.195235,3.6547082 128.160879,3.6547082 128.160879,3.6547082 L128.160879,3.68906417 Z M119.537531,20.5234883 L119.503175,20.6265562 C119.468819,20.798336 119.331396,21.3480315 119.400108,21.3480315 C119.29704,21.3136755 120.671278,17.7062989 120.808702,17.3627393 C121.08355,16.6412639 121.495822,16.0228565 121.736313,15.2670252 C122.011161,14.476838 122.354721,13.7897186 122.732636,13.0682433 C123.179264,12.1062762 127.405048,4.03262384 127.1302,3.860844 C127.061488,3.82648804 123.763315,10.1136301 123.454112,10.8007495 C122.766992,12.2437001 121.873737,13.6179388 121.324042,15.1296014 C120.705634,16.9161117 119.846735,18.668266 119.537531,20.5234883 Z M122.015456,17.9639687 C122.054106,17.9124347 122.097051,17.8609008 122.148585,17.8093668 C122.097051,17.8609008 122.054106,17.9210237 122.015456,17.9768522 L122.015456,17.9639687 Z M122.015456,17.9639687 C121.976805,18.0155026 121.942449,18.0670366 121.908093,18.1185705 C121.942449,18.0842146 121.976805,18.0326806 122.015456,17.9768522 L122.015456,17.9639687 Z M128.160879,3.68906417 L128.160879,3.6547082 L128.195235,3.6547082 L128.160879,3.68906417 Z M119.520353,20.6050837 C119.511764,20.6179672 119.503175,20.6265562 119.503175,20.6265562 C119.503175,20.6093782 119.511764,20.6007892 119.520353,20.5922002 L119.520353,20.6050837 Z M119.520353,20.5922002 C119.528942,20.5836112 119.537531,20.5750222 119.537531,20.5578442 C119.537531,20.5750222 119.528942,20.5922002 119.520353,20.6050837 L119.520353,20.5922002 Z M142.962387,26.9136982 C143.065454,27.3946818 142.721895,27.9787332 142.515759,28.3910048 C142.240911,28.9750563 141.897352,29.5247518 141.519436,30.0744473 C140.729249,31.2425501 139.870349,32.410653 139.045806,33.5787559 C138.221263,34.7125029 137.328008,35.8462498 136.228617,36.7738609 C136.022481,36.9112848 134.442107,38.1824556 134.339039,38.1480996 C134.339039,38.1137437 134.373395,38.0793877 134.407751,38.0450317 L134.167259,38.1480996 C134.339039,38.1137437 133.686275,38.5603712 133.514495,38.6290832 C133.033512,38.7321511 132.518172,38.5947272 132.105901,38.3198795 C131.659273,38.0450317 131.418781,37.6327601 131.212646,37.1517766 C130.869086,36.3959453 130.83473,35.67447 130.972154,34.8499267 C131.00651,34.6781469 131.487493,32.6855008 131.727985,32.7198568 C131.796697,32.7198568 131.659273,32.9947045 131.693629,33.0290605 L131.934121,32.1701613 C131.831053,32.1358053 133.651919,28.2879369 133.823699,28.0474452 C132.79302,28.253581 131.487493,28.219225 130.766018,27.3259698 C130.559882,27.0511221 130.628594,26.8106303 130.559882,26.6044945 C130.456814,26.3296468 130.31939,26.1922229 130.250679,25.9517311 C129.907119,24.2682887 131.865409,21.9320829 133.514495,23.0658299 L133.445783,22.962762 C133.480139,22.7566262 133.892411,23.2719657 133.926767,23.4437455 C133.926767,23.5811694 133.651919,24.5431365 133.480139,24.4744245 C133.445783,24.4744245 133.686275,23.8560171 133.686275,23.8216612 C133.445783,24.4744245 132.724308,25.1958999 132.655596,25.8830192 C132.586884,26.3983587 132.861732,26.3983587 133.30836,26.5014266 C133.961123,26.6732065 134.991802,26.5701386 135.816345,26.8106303 C135.26665,26.6388505 134.613886,26.6044945 134.167259,26.5357826 C134.167259,26.5357826 134.132903,26.5357826 134.132903,26.5014266 C134.648242,26.5701386 135.197938,26.5701386 135.644565,26.6732065 C136.640888,26.9136982 137.259296,27.2916139 136.847024,28.3566489 C136.434753,29.3529719 135.919413,30.349295 135.472786,31.3456181 C135.060514,32.3075851 134.716954,33.3382642 134.339039,34.3345872 C134.235971,34.6781469 133.480139,36.1210975 133.754987,36.4646572 C134.098547,36.8769288 135.988125,35.1591305 136.503465,34.609435 C136.400397,34.7125029 136.297329,34.7125029 136.228617,34.7812148 C136.159905,34.7812148 136.915736,33.8192477 137.018804,33.6818238 L138.015127,32.410653 L139.870349,29.9713793 L141.759928,27.4290377 C141.931707,27.2229019 142.756251,26.0204431 142.962387,26.9136982 Z M132.689952,31.0364143 C132.277681,31.9983814 131.865409,32.9947045 131.624917,34.0253835 C131.865409,33.1321284 132.243325,32.2732292 132.586884,31.448686 L133.239648,29.9370234 C133.411428,29.6278197 134.132903,27.9443773 134.304683,27.8413094 C134.064191,27.9100213 133.583207,29.1468361 133.514495,29.249904 C133.205292,29.8339555 132.930444,30.4180069 132.689952,31.0364143 Z M131.957332,37.8479336 C131.952256,37.8422593 131.94487,37.8388959 131.934121,37.8388959 C131.939473,37.8442481 131.944872,37.8495771 131.950316,37.8548824 L131.957332,37.8479336 Z M131.950316,37.8548824 C132.154552,38.0539057 132.423133,38.2194877 132.724308,38.3198795 C132.346393,38.1824556 132.071545,37.9076079 131.865409,37.6327601 L131.865409,37.6671161 C131.831053,37.6327601 131.796697,37.5984041 131.796697,37.5640482 L131.831053,37.5984041 C131.685312,37.2777749 131.539572,36.9571457 131.456774,36.7414217 L131.384425,36.3615893 L131.384425,36.3272333 C131.350069,36.2585214 131.350069,36.2241654 131.350069,36.2241654 C131.350069,36.2241654 131.350069,36.2585214 131.384425,36.2928774 L131.384425,36.1210975 C131.350069,35.640114 131.384425,35.1934864 131.453137,34.7468588 L131.453137,34.7125029 C131.384425,35.0217066 131.350069,35.2965543 131.350069,35.640114 C131.315714,36.0523856 131.350069,36.5333692 131.453137,36.9456408 C131.487493,37.0487087 131.762341,37.6327601 131.968477,37.9076079 C131.968477,37.8840013 131.968477,37.8603948 131.957332,37.8479336 L131.950316,37.8548824 Z M131.456774,36.7414217 L131.521849,37.0830646 L131.418781,36.6364371 C131.429197,36.6676842 131.441981,36.7028785 131.456774,36.7414217 Z M132.827376,26.2952908 C132.758664,26.2609349 132.689952,26.089155 132.689952,26.0204431 C132.724308,26.089155 132.930444,26.2609349 132.930444,26.2609349 C133.102224,26.3983587 133.342716,26.4670707 133.617563,26.5014266 C133.30836,26.4670707 132.999156,26.4327147 132.827376,26.2952908 Z M136.434753,28.9750563 L136.434753,28.9407003 L135.713277,30.4867189 L136.434753,28.9750563 Z M131.487229,34.6144816 C131.484044,34.6438822 131.453137,34.6455612 131.453137,34.6781469 L131.453137,34.7125029 C131.453137,34.6797508 131.48436,34.6469988 131.487276,34.6142468 L131.487229,34.6144816 Z M136.469109,28.8719884 L136.434753,28.9063444 L136.469109,28.9063444 L136.469109,28.8719884 Z M136.469109,28.8719884 L136.434753,28.9063444 L136.469109,28.9063444 L136.469109,28.8719884 Z M131.539027,34.1069789 C131.547616,34.0855065 131.556205,34.0597395 131.556205,34.0253835 C131.556205,34.0597395 131.547616,34.0855065 131.539027,34.1069789 Z M131.539027,34.1069789 C131.530438,34.1284514 131.521849,34.1456294 131.521849,34.1628074 C131.521849,34.1456294 131.530438,34.1284514 131.539027,34.1069789 Z M131.676451,37.3450289 C131.68504,37.3579124 131.693629,37.3750904 131.693629,37.3922683 C131.693629,37.3750904 131.68504,37.3665014 131.676451,37.3579124 L131.676451,37.3450289 Z M131.676451,37.3450289 C131.667862,37.3321454 131.659273,37.3235564 131.659273,37.3235564 C131.659273,37.3407344 131.667862,37.3493234 131.676451,37.3579124 L131.676451,37.3450289 Z M132.724308,25.9517311 C132.689952,25.9517311 132.689952,25.9860871 132.689952,25.9860871 L132.724308,25.9517311 Z M153.572466,26.7762744 C153.70989,27.0511221 153.606822,27.2229019 153.435042,27.4290377 L152.370007,28.8376324 L150.514785,31.2425501 C150.033801,31.8609576 149.44975,32.445009 148.968766,33.0634164 C148.453427,33.7505358 148.006799,34.4720111 147.422748,35.1247745 C146.80434,35.7775379 146.082865,36.4646572 145.258322,36.9112848 C144.67427,37.2204885 144.124575,37.2548445 143.506167,37.0830646 C142.612912,36.8425729 141.822725,36.2928774 141.238673,35.605758 C141.066894,35.3996222 140.895114,35.2278424 140.860758,34.9529946 C140.826402,34.7468588 140.792046,34.5063671 140.792046,34.2658753 C140.75769,33.8536037 140.895114,33.5444 140.963826,33.1321284 C141.032538,32.6855008 141.238673,32.2732292 141.307385,31.8266016 C141.376097,31.3456181 141.513521,30.8989905 141.582233,30.4523629 C141.616589,30.0400913 141.547877,29.5934637 141.650945,29.1811921 C141.719657,28.9063444 141.925793,28.6314966 142.028861,28.3222929 C141.925793,28.5284287 141.754013,28.7345645 141.719657,28.9063444 C141.616589,29.1811921 141.547877,29.4560398 141.444809,29.6965316 C141.341741,29.9713793 141.307385,30.2118711 141.204317,30.4867189 C141.066894,30.7959226 140.92947,31.0707703 140.895114,31.41433 C140.860758,31.7235337 140.895114,32.0327374 140.860758,32.3419411 C140.792046,32.6511448 140.723334,32.8916366 140.723334,33.2008403 C140.723334,33.3039082 140.792046,33.510044 140.792046,33.5787559 C140.792046,33.7161798 140.723334,33.8879597 140.723334,34.0597395 C140.723334,34.3689432 140.792046,34.6781469 140.826402,35.0217066 C140.276706,34.0597395 140.379774,33.0977724 140.551554,32.0670934 C140.723334,31.0364143 140.860758,30.0400913 141.101249,29.0437682 C141.547877,27.0167661 142.475488,25.02412 143.781015,23.4093895 C144.84605,22.0007949 146.254645,20.9357599 148.109867,21.2793196 C148.796986,21.4167434 149.552818,21.7259471 149.999445,22.3099986 C150.480429,22.962762 150.446073,23.7873052 150.205581,24.5431365 C149.758953,25.8830192 148.625206,26.9480542 147.560171,27.8413094 C147.113544,28.219225 146.63256,28.5971406 146.117221,28.9063444 C145.773661,29.1124802 145.395745,29.249904 145.01783,29.3873279 L144.433778,29.5934637 C144.193287,29.6621756 144.158931,29.6278197 144.055863,29.8339555 C143.884083,30.1775152 143.987151,30.5210748 143.918439,30.8646345 C143.849727,31.3112621 143.746659,31.7235337 143.643591,32.1701613 C143.471811,32.9947045 143.196964,34.0597395 143.403099,34.9186387 C143.781015,36.670793 146.666916,33.9566716 147.182256,33.475688 C147.525815,33.1664843 147.835019,32.8229247 148.144223,32.5137209 C148.316003,32.3075851 148.522138,32.1358053 148.659562,31.9296695 C148.659562,31.9296695 148.728274,31.7578897 148.728274,31.6891777 C149.140546,31.0364143 149.690241,30.4180069 150.205581,29.7995995 C150.823988,29.0781242 151.373684,28.3222929 151.957735,27.5321057 C152.266939,27.0854781 152.988414,25.8143073 153.53811,26.7419184 L153.53811,26.7762744 C153.572466,26.8106303 153.572466,26.8106303 153.572466,26.7762744 Z M145.052186,27.15419 C144.880406,27.4977497 144.777338,27.8756653 144.605558,28.253581 C145.704949,27.6695295 146.701272,26.8793423 147.491459,25.9517311 L148.075511,25.1958999 C148.178579,25.02412 148.350359,24.9210521 148.419071,24.7149163 C148.453427,24.5431365 148.384715,24.4057126 148.419071,24.1995768 L148.556494,23.4781015 C148.59085,23.1345418 148.453427,22.2412866 147.938087,22.3443546 C147.697595,22.4130665 147.457103,22.7222702 147.31968,22.89405 L146.701272,23.7185933 C145.979797,24.7836282 145.601881,25.9517311 145.086542,27.0511221 C145.086542,27.0511221 145.086542,27.0854781 145.052186,27.15419 Z M164.216901,26.7762744 C164.354325,27.0511221 164.251257,27.2229019 164.079477,27.4290377 L163.014442,28.8376324 L161.15922,31.2425501 C160.678236,31.8609576 160.094185,32.445009 159.613201,33.0634164 C159.097862,33.7505358 158.651234,34.4720111 158.067183,35.1247745 C157.448775,35.7775379 156.7273,36.4646572 155.902757,36.9112848 C155.318705,37.2204885 154.76901,37.2548445 154.150602,37.0830646 C153.257347,36.8425729 152.46716,36.2928774 151.883109,35.605758 C151.711329,35.3996222 151.539549,35.2278424 151.505193,34.9529946 C151.470837,34.7468588 151.436481,34.5063671 151.436481,34.2658753 C151.402125,33.8536037 151.539549,33.5444 151.608261,33.1321284 C151.676973,32.6855008 151.883109,32.2732292 151.95182,31.8266016 C152.020532,31.3456181 152.157956,30.8989905 152.226668,30.4523629 C152.261024,30.0400913 152.192312,29.5934637 152.29538,29.1811921 C152.364092,28.9063444 152.570228,28.6314966 152.673296,28.3222929 C152.570228,28.5284287 152.398448,28.7345645 152.364092,28.9063444 C152.261024,29.1811921 152.192312,29.4560398 152.089244,29.6965316 C151.986176,29.9713793 151.95182,30.2118711 151.848753,30.4867189 C151.711329,30.7959226 151.573905,31.0707703 151.539549,31.41433 C151.505193,31.7235337 151.539549,32.0327374 151.505193,32.3419411 C151.436481,32.6511448 151.367769,32.8916366 151.367769,33.2008403 C151.367769,33.3039082 151.436481,33.510044 151.436481,33.5787559 C151.436481,33.7161798 151.367769,33.8879597 151.367769,34.0597395 C151.367769,34.3689432 151.436481,34.6781469 151.470837,35.0217066 C150.921141,34.0597395 151.024209,33.0977724 151.195989,32.0670934 C151.367769,31.0364143 151.505193,30.0400913 151.745685,29.0437682 C152.192312,27.0167661 153.119923,25.02412 154.42545,23.4093895 C155.490485,22.0007949 156.89908,20.9357599 158.754302,21.2793196 C159.441421,21.4167434 160.197253,21.7259471 160.64388,22.3099986 C161.124864,22.962762 161.090508,23.7873052 160.850016,24.5431365 C160.403388,25.8830192 159.269642,26.9480542 158.204607,27.8413094 C157.757979,28.219225 157.276995,28.5971406 156.761656,28.9063444 C156.418096,29.1124802 156.040181,29.249904 155.662265,29.3873279 L155.078214,29.5934637 C154.837722,29.6621756 154.803366,29.6278197 154.700298,29.8339555 C154.528518,30.1775152 154.631586,30.5210748 154.562874,30.8646345 C154.494162,31.3112621 154.391094,31.7235337 154.288026,32.1701613 C154.116246,32.9947045 153.841399,34.0597395 154.047534,34.9186387 C154.42545,36.670793 157.311351,33.9566716 157.826691,33.475688 C158.170251,33.1664843 158.479454,32.8229247 158.788658,32.5137209 C158.960438,32.3075851 159.166574,32.1358053 159.303998,31.9296695 C159.303998,31.9296695 159.372709,31.7578897 159.372709,31.6891777 C159.784981,31.0364143 160.334677,30.4180069 160.850016,29.7995995 C161.468423,29.0781242 162.018119,28.3222929 162.60217,27.5321057 C162.911374,27.0854781 163.632849,25.8143073 164.182545,26.7419184 L164.182545,26.7762744 C164.216901,26.8106303 164.216901,26.8106303 164.216901,26.7762744 Z M155.696621,27.15419 C155.524841,27.4977497 155.421773,27.8756653 155.249993,28.253581 C156.349384,27.6695295 157.345707,26.8793423 158.135895,25.9517311 L158.719946,25.1958999 C158.823014,25.02412 158.994794,24.9210521 159.063506,24.7149163 C159.097862,24.5431365 159.02915,24.4057126 159.063506,24.1995768 L159.20093,23.4781015 C159.235286,23.1345418 159.097862,22.2412866 158.582522,22.3443546 C158.34203,22.4130665 158.101539,22.7222702 157.964115,22.89405 L157.345707,23.7185933 C156.624232,24.7836282 156.246316,25.9517311 155.730977,27.0511221 C155.730977,27.0511221 155.730977,27.0854781 155.696621,27.15419 Z M167.062531,34.9186387 C167.543515,34.9186387 166.718972,36.1898095 166.65026,36.3272333 C166.409768,36.8769288 166.066208,37.0487087 165.585225,37.4953362 C165.172953,37.8732519 164.829394,38.3198795 164.17663,37.9763198 C163.936138,37.8732519 163.317731,37.3235564 163.180307,37.0487087 C162.699324,36.0180296 163.970494,34.609435 164.760682,34.1971634 C165.379089,33.8879597 166.031852,33.7161798 166.718972,33.9910276 C166.890752,34.0253835 166.890752,33.8879597 167.062531,34.0940955 C167.268667,34.3689432 167.062531,34.6781469 167.062531,34.9186387 Z M180.31802,27.7038855 C180.180596,27.6351736 180.249308,27.5321057 180.077528,27.6351736 C180.111884,27.7038855 180.14624,27.7382415 180.214952,27.7382415 C178.978137,28.4253608 177.84439,29.3873279 176.745,30.2462271 C175.336405,31.3112621 173.962166,32.410653 172.622283,33.5444 C171.385469,34.575079 171.110621,36.9112848 170.560925,38.3885914 C170.01123,39.9346099 169.49589,41.5149844 168.877483,43.026647 C168.430855,44.2634619 167.846804,45.3972088 167.194041,46.5309557 C166.678701,47.4585668 166.197717,48.5923138 165.40753,49.3137891 C164.445563,50.1726883 163.10568,50.447536 161.868866,50.0009084 C159.051676,48.9702294 159.635728,46.187396 160.769475,44.160394 C161.387882,43.061003 162.212425,42.1333919 162.933901,41.1027128 C163.517952,40.2781696 164.170715,39.4192704 164.926547,38.6634391 C165.957226,37.5984041 167.090973,36.5677251 168.22472,35.5714021 C168.499567,35.2965543 168.843127,35.0560625 169.083619,34.7812148 C169.392822,34.4720111 169.49589,34.1284514 169.633314,33.6818238 L170.286078,31.6548218 C170.698349,30.4523629 171.076265,29.2155481 171.454181,28.0130892 C171.660316,27.4290377 171.832096,26.8106303 172.038232,26.2609349 C172.1413,26.0204431 172.175656,25.6081715 172.278724,25.4363916 C173.137623,24.1652208 175.920456,25.4363916 175.130269,27.0167661 C174.340082,28.6314966 173.206335,30.1775152 172.587927,31.9296695 C174.133946,30.6928547 175.679965,29.4903958 177.329051,28.3910048 C177.878746,28.0130892 178.462798,27.6695295 178.978137,27.2916139 C179.321697,27.0167661 180.180596,26.089155 180.455444,26.8449863 C180.558512,27.119834 180.4898,27.4977497 180.31802,27.7038855 Z M166.919193,41.3088486 C166.987905,41.1370688 166.987905,41.1027128 166.987905,41.1370688 L168.499567,37.0487087 C167.022261,38.3198795 165.75109,39.6941182 164.514275,41.2057807 C163.311816,42.6830873 161.765798,44.4008857 161.456594,46.3591759 C161.353526,47.0462952 161.49095,48.2487541 162.315493,48.4548899 C163.071324,48.6266697 163.758444,47.5959907 164.102003,47.0806512 C165.201394,45.3972088 165.991582,43.5419865 166.747413,41.6524083 C166.781769,41.6180524 166.850481,41.3432046 166.919193,41.2057807 L166.919193,41.3088486 Z M175.608224,21.4495856 C175.617662,21.4400567 175.808048,21.3917275 175.71432,21.4854554 C175.370761,21.7946591 175.095913,22.2069307 174.752353,22.5504904 C174.511862,22.7222702 174.408794,22.7909821 174.168302,22.89405 C174.133946,22.928406 174.065234,22.7566262 174.030878,22.7909821 C173.721674,22.8596941 173.068911,23.4781015 172.931487,22.7222702 C172.897131,22.5848463 172.931487,22.3443546 173.103267,22.3787105 C173.103267,22.3099986 173.481183,21.7259471 173.275047,22.2069307 C173.584251,21.7259471 173.824742,21.2106076 174.065234,20.6609121 L173.75603,21.2106076 C174.065234,20.4204204 174.44315,18.7713339 174.44315,18.5651981 C174.477506,18.0842146 174.44315,18.0842146 174.09959,17.8437228 C174.133946,17.8780788 174.168302,17.9467907 174.133946,17.9811467 C173.962166,18.2216384 173.824742,17.637587 173.824742,17.5345191 C173.859098,17.3283833 174.09959,17.1909594 174.237014,17.1222475 C174.408794,17.0191796 174.649285,16.9848236 174.821065,16.9504676 C175.508185,16.7786878 176.710644,16.8473997 177.191627,17.3627393 C177.294695,17.4658072 177.363407,17.603231 177.432119,17.7406549 C177.569543,18.1185705 177.603899,18.5995541 177.432119,18.9431138 C177.225983,19.3210294 176.985491,19.2866734 176.916779,19.6645891 L176.848067,19.6645891 C176.745,19.9050809 176.676288,20.5578442 176.435796,20.8670479 C176.127612,21.3122025 175.853558,21.1771518 175.613633,21.4483934 L175.608224,21.4495856 Z M169.014907,38.7321511 C168.877483,38.8695749 168.808771,39.0757108 168.671347,39.1787787 C168.465211,39.3505585 168.362143,40.1063898 168.259076,40.3812375 C168.499567,39.831542 168.946195,39.2818466 169.014907,38.7321511 Z M168.533923,41.5836964 C168.602635,41.4119165 168.671347,41.2057807 168.705703,40.9996449 C168.671347,41.0340009 168.671347,41.0683569 168.671347,41.1027128 L168.533923,41.5149844 L168.533923,41.3432046 C168.396499,41.6180524 168.190364,41.8929001 168.121652,42.2364598 C168.05294,42.4082396 168.05294,42.5800194 168.018584,42.7517993 L168.121652,42.4425956 L168.22472,42.1677478 L168.327787,41.995968 L168.430855,41.7554762 L168.430855,41.7898322 L168.533923,41.5836964 Z M168.843127,40.6560853 C168.843127,40.6560853 168.808771,40.6904412 168.808771,40.7247972 L168.843127,40.7247972 L168.843127,40.7591532 C168.980551,40.4499495 169.117975,40.0720338 169.221043,39.7628301 L169.324111,39.5566943 L169.255399,39.6254062 C169.049263,39.831542 168.946195,40.2781696 168.843127,40.6560853 Z M173.5456,21.5670508 C173.584251,21.5112223 173.635784,21.4339214 173.687318,21.3480315 C173.652962,21.4682774 173.618606,21.5541673 173.584251,21.6057012 L173.5456,21.5670508 Z M173.5456,21.5670508 C173.50695,21.6228792 173.481183,21.6572352 173.481183,21.6572352 C173.515539,21.6744132 173.549895,21.6572352 173.584251,21.6057012 L173.5456,21.5670508 Z M168.980551,40.3468816 L169.049263,40.1407457 C169.014907,40.2094577 168.980551,40.2781696 168.980551,40.3468816 Z M169.083619,40.0033219 C169.049263,40.0376778 169.049263,40.0720338 169.049263,40.1407457 L169.083619,40.0033219 Z M168.808771,40.7935091 L168.808771,40.7591532 L168.774415,40.7935091 L168.808771,40.7935091 Z M173.171979,22.3787105 C173.171979,22.4130665 173.137623,22.4130665 173.137623,22.4130665 L173.171979,22.4130665 L173.171979,22.3787105 Z M183.575481,25.6082812 C183.57562,25.6082081 183.575767,25.6081715 183.575922,25.6081715 C183.575777,25.6082439 183.575633,25.6083164 183.575489,25.6083891 L183.575481,25.6082812 Z M183.575481,25.6082812 C183.544988,25.6243481 183.920882,27.4012175 184.228686,28.8376324 C183.988194,27.9100213 183.67899,26.8106303 183.541566,26.157867 C183.816414,27.6695295 184.159974,29.1468361 184.503533,30.6241427 C184.537889,30.5897868 184.572245,30.5210748 184.537889,30.349295 C184.572245,30.4523629 184.606601,30.5210748 184.606601,30.5554308 C186.118264,29.7995995 187.526859,29.0781242 188.935453,28.184869 C189.553861,27.7725974 190.206624,27.0854781 190.859387,26.7762744 C191.202947,26.6388505 191.477795,26.7075624 191.580863,27.188546 L191.580863,27.2229019 C191.718287,28.3222929 190.000488,29.2155481 189.279013,29.7308876 C188.28269,30.4523629 187.286367,31.1394822 186.186976,31.7235337 C185.912128,31.8609576 185.499856,31.9983814 185.225009,32.2045172 C184.847093,32.5137209 184.915805,32.479365 184.984517,33.0290605 C185.087585,33.6474679 185.156297,34.2658753 185.156297,34.9186387 C185.190653,35.8806058 185.087585,36.8425729 184.744025,37.770184 C183.919482,39.900254 182.270396,41.2744927 179.899834,41.2057807 C177.80412,41.1714248 175.570982,40.0720338 176.017609,37.80454 C175.983253,37.8732519 175.880186,38.4573033 175.84583,38.4229474 C175.605338,38.2855235 175.84583,37.5296922 175.914542,37.3579124 C176.326813,36.0867416 177.426204,35.0904185 178.456883,34.3002313 C179.040935,33.8536037 179.624986,33.4069761 180.209037,33.0290605 C180.655665,32.7542127 181.686344,32.3419411 181.755056,31.8609576 C181.858124,31.379974 181.411496,30.349295 181.274072,29.8339555 C181.136649,29.1811921 180.896157,28.4940727 180.827445,27.8069534 C180.793089,27.3603258 180.930513,27.0854781 180.827445,26.6732065 C180.655665,26.123511 180.483885,25.6081715 180.449529,25.02412 C180.415173,24.4400686 180.415173,23.8560171 180.621309,23.3063216 C180.896157,22.4817784 182.717023,20.5922002 183.644634,21.4510994 C183.644634,21.2793196 184.091262,21.9320829 184.125618,22.1382187 C184.125618,22.2756426 183.988194,23.5468134 183.782058,23.5124574 C183.782058,23.5124574 183.85077,23.2032537 183.885126,22.962762 C183.713346,23.4437455 183.438498,23.8903731 183.404142,24.4057126 C183.335431,24.8523402 183.438498,25.3676797 183.50721,25.7799513 C183.50721,25.7113842 183.50721,25.642817 183.575489,25.6083891 L183.575481,25.6082812 Z M177.701052,39.0069988 C178.182035,39.1787787 178.731731,39.0757108 179.212714,38.9726428 L180.174682,38.5947272 C180.209037,38.6290832 179.899834,38.835219 179.899834,38.8695749 C180.312105,38.6290832 180.655665,38.3198795 180.964869,37.9419638 L180.793089,38.0793877 C181.067937,37.80454 181.7207,36.4303013 181.755056,36.2928774 C181.995548,35.4683342 181.995548,34.6437909 181.961192,33.8192477 C181.89248,33.8879597 181.789412,33.9223156 181.7207,33.9566716 L181.961192,33.7505358 L181.54892,33.9910276 C181.755056,33.9223156 181.102293,34.4376551 180.999225,34.5063671 L179.968546,35.1934864 C179.281426,35.67447 178.525595,36.1898095 178.010256,36.8769288 C177.701052,37.3235564 176.807797,38.7321511 177.701052,39.0069988 Z M182.029904,40.0033219 C182.923159,39.5910503 183.404142,39.0069988 183.782058,38.2511675 C182.785735,39.6597622 181.033581,40.4843054 179.350138,40.5873733 C180.277749,40.5530174 181.136649,40.3812375 182.029904,40.0033219 Z M184.460588,29.8167775 C184.426232,29.6535866 184.383288,29.4732178 184.331754,29.28426 C184.36611,29.4732178 184.400466,29.6621756 184.434821,29.829661 L184.460588,29.8167775 Z M184.460588,29.8167775 C184.494944,29.9799683 184.520711,30.1259812 184.537889,30.2462271 C184.503533,30.1431592 184.469177,29.9971463 184.434821,29.829661 L184.460588,29.8167775 Z M184.954455,33.7462413 C184.95875,33.7763028 184.967339,33.8020697 184.984517,33.8192477 C184.984517,33.8020697 184.975928,33.7763028 184.967339,33.7462413 L184.954455,33.7462413 Z" id="React-+-Three.js" fill="#ffffff"></path>
    </g>
</svg>
