<?xml version="1.0" encoding="UTF-8"?>
<svg width="73px" height="73px" viewBox="0 0 73 73" version="1.1" xmlns="http://www.w3.org/2000/svg" xmlns:xlink="http://www.w3.org/1999/xlink">
    <!-- Generator: Sketch 48.2 (47327) - http://www.bohemiancoding.com/sketch -->
    <title>orbit</title>
    <desc>Created with Sketch.</desc>
    <defs></defs>
    <g id="Page-1" stroke="none" stroke-width="1" fill="none" fill-rule="evenodd">
        <g id="orbit" fill="#FFFFFF" fill-rule="nonzero">
            <path d="M56.2911111,34.5026389 C56.2775926,34.0734259 56.2708333,33.945 56.2471759,33.370463 L56.2133796,32.7114352 C56.2167593,32.7790278 56.1795833,32.1740741 56.1863426,32.238287 L56.1728241,32.0355093 L52.0699537,32.3058796 L52.0699537,32.3193981 C52.0868519,32.5593519 52.1003704,32.7824074 52.1138889,33.0257407 C52.1138889,33.0223611 52.1983796,35.4996296 52.1983796,35.49625 L52.2017593,35.5807407 L52.1983796,35.5469444 L52.2017593,35.6449537 L52.2017593,35.7159259 L52.2017593,35.6821296 L52.2017593,35.7835185 L52.2017593,35.7531019 L52.2017593,35.8544907 L52.2017593,35.8206944 L52.2051389,35.9389815 L52.2017593,35.9051852 L52.2051389,36.0403704 L52.2051389,36.0065741 L52.2051389,36.1586574 L52.2051389,36.1248611 L52.2051389,36.3276389 L52.2051389,36.2972222 L52.2051389,36.5 C52.2051389,39.6261574 51.9820833,42.8908796 51.4818981,46.1319444 C52.9790741,45.7094907 54.4458333,45.2126852 55.8348611,44.6313889 C56.1626852,41.9276852 56.3181481,39.210463 56.3181481,36.5033796 C56.3147685,36.0741667 56.3113889,35.6449537 56.3046296,35.2157407 L56.2911111,34.5026389 Z M14.1471296,52.2963889 L2.7037037,48.974213 L4.9275,46.5712963 C2.08523148,43.9013889 0,40.4947222 0,36.5 C0.0202777778,33.4042593 1.18287037,30.7850463 3.08222222,28.3922685 C5.88731481,24.975463 9.8887963,22.4508796 14.3668056,20.6427778 C13.9747685,22.2785185 13.6503241,23.9311574 13.3900926,25.5973148 C11.4366667,26.5841667 9.64208333,27.7467593 8.08407407,29.1053704 C6.18134259,30.7951852 4.58615741,32.8837963 4.20087963,35.3982407 C3.94402778,37.0880556 4.29212963,38.6933796 5.0762037,40.1871759 C5.74199074,41.4511574 6.69166667,42.5900926 7.71907407,43.5499074 L9.93949074,41.1469907 L14.1471296,52.2963889 Z M28.3888889,17.1786574 C31.2277778,16.8305556 33.9855556,16.6784722 36.5,16.6784722 C42.4650463,16.6784722 48.5044444,17.42875 54.229537,19.1185648 C62.0702778,21.4336111 72.9425463,26.9998611 73,36.5 C72.9797222,39.5923611 71.8205093,42.2115741 69.9211574,44.6043519 C62.6515741,53.4657407 47.3283333,56.3215278 36.5,56.3215278 C33.4921296,56.3215278 30.3423148,56.1390278 27.3851389,55.7064352 L27.9427778,51.6339815 C30.7140741,52.039537 33.6847685,52.2085185 36.5033796,52.2085185 C45.6621759,52.2085185 57.788287,50.1097685 64.9193056,43.8946296 C67.095787,41.9614815 68.8633333,39.51125 68.8903704,36.5 C68.8464352,31.5826389 64.1250926,27.9968519 60.1912037,25.9082407 C53.1412963,22.2143056 44.3846759,20.7881019 36.5,20.7881019 C33.5124074,20.7881019 30.2071296,21.0111574 26.8612963,21.5282407 C27.2905093,20.0344444 27.7974537,18.5778241 28.3888889,17.1786574 Z M47.3959259,59.5963889 C49.0384259,59.339537 50.6910648,59.0252315 52.3268056,58.6399537 C49.4541204,65.6121296 44.3035648,72.9526852 36.5,73 C33.4042593,72.9797222 30.7850463,71.8205093 28.3922685,69.9211574 C19.5308796,62.6481944 16.6784722,47.3283333 16.6784722,36.5 C16.6784722,30.5383333 17.42875,24.4955556 19.1185648,18.770463 C21.4336111,10.9297222 26.9998611,0.0574537037 36.5,0 C41.4139815,0 45.378287,3.12953704 48.2137963,6.88768519 L50.8431481,4.93763889 L52.9047222,16.6683333 L42.2791667,11.2845833 L44.9085185,9.33453704 C42.9449537,6.67476852 39.9573611,4.11300926 36.5,4.11300926 C31.5826389,4.15694444 27.9968519,8.88166667 25.9082407,12.8155556 C22.2143056,19.8587037 20.7881019,28.6153241 20.7881019,36.5 C20.7881019,45.6587963 22.8868519,57.7849074 29.1053704,64.9159259 C31.0385185,67.0924074 33.4853704,68.8599537 36.5,68.8869907 C41.4173611,68.8430556 45.0031481,64.121713 47.0917593,60.1878241 L47.3959259,59.5963889 Z" id="Shape"></path>
        </g>
    </g>
</svg>